<?xml version="1.0" encoding="utf-8"?>
<!-- Generator: Adobe Illustrator 22.0.1, SVG Export Plug-In . SVG Version: 6.00 Build 0)  -->
<svg version="1.1" id="Layer_1" xmlns="http://www.w3.org/2000/svg" xmlns:xlink="http://www.w3.org/1999/xlink" x="0px" y="0px"
	 width="1000px" height="240px" viewBox="0 0 1000 240" style="enable-background:new 0 0 1000 240;" xml:space="preserve">
<style type="text/css">
	.st0{fill:#0052CC;}
</style>
<path class="st0" d="M208.1,57.4c0-19.5-15.7-35.3-35.1-35.3c-18.7,0-34.1,14.7-35,33.5c0,0.4,0,18.6,0,38.5L77,33.7
	C70.3,26.3,60.9,22.1,51,22.1c-8.7,0-17,3.2-23.5,9.1C20.4,37.7,16.2,47,16,56.7c0,0.1,0,0.2,0,0.3c0,0,0,112.9,0.1,123.5
	c0,2.7,0.8,6.6,1.4,9.1c4.1,15.4,18,26.1,33.9,26.1c19.3,0,35.1-15.8,35.1-35.3v-37.9c25.3,25.8,58.6,59.6,58.6,59.6
	c14.1,14.6,37.3,16,51.8,2.8c7.3-6.6,11.5-16.1,11.6-26C208.3,179.1,208.1,57.8,208.1,57.4z M78.4,180.5c0,15-12.2,27.3-27.1,27.3
	c-12.2,0-23-8.3-26.2-20.2c-0.6-2.4-1.1-5.5-1.1-7.1c-0.1-10.6,0-34.4,0-51.7c0-5.2,0-10,0-13.8c0.5-11,5.1-14,11.8-15
	c6.4-1,15.7,7.2,29.1,20.9c3.5,3.6,8.1,8.3,13.5,13.7V180.5z M187.9,136.9c-7.6,0-14.7-7.6-28.6-21.6L146,102c0-18.9,0-44.5,0-46
	c0.7-14.5,12.6-25.9,27.1-25.9c14.9,0,27.1,12.2,27.1,27.3c0,0.4,0.2,37.1,0.2,61.8C200.3,129.4,198.1,136.9,187.9,136.9z"/>
<path class="st0" d="M323.3,199.3h-19.6c-3.3,0-4.9-1.7-4.9-4.9V52.7c0-3.3,1.6-4.9,4.9-4.9h17.7c3.3,0,5.5,1.1,6.6,3.3l47.6,89.3
	h0.9V52.7c0-3.3,1.6-4.9,4.9-4.9H401c3.3,0,4.9,1.6,4.9,4.9v141.7c0,3.3-1.6,4.9-4.9,4.9h-17.2c-3.5,0-6-1.6-7.5-4.7l-47.1-87.7
	h-0.9v87.4C328.2,197.7,326.6,199.3,323.3,199.3z"/>
<path class="st0" d="M527.6,199.3h-52.1c-12.4,0-22-3.3-28.8-9.9c-6.8-6.6-10.1-16.1-10.1-28.5v-43.4c0-12.4,3.4-21.9,10.1-28.5
	c6.8-6.6,16.3-9.9,28.8-9.9h18.6c12.4,0,22,3.3,28.8,9.9c6.8,6.6,10.1,16.1,10.1,28.5v29.9c0,3.3-1.6,4.9-4.9,4.9h-59.2
	c-1.9,0-2.8,0.9-2.8,2.6v5.2c0,4.9,1.1,8.4,3.2,10.5c2.1,2.1,5.7,3.2,10.7,3.2h47.6c3.3,0,4.9,1.7,4.9,5.2v15.6
	c0,1.7-0.4,2.9-1.1,3.7C530.8,198.9,529.5,199.3,527.6,199.3z M468.9,132.4H501c1.7,0,2.6-0.9,2.6-2.6v-11.3c0-5-1-8.6-3.1-10.6
	c-2-2-5.6-3.1-10.6-3.1H480c-5,0-8.6,1-10.6,3.1c-2,2-3.1,5.6-3.1,10.6v11.3C466.3,131.5,467.2,132.4,468.9,132.4z"/>
<path class="st0" d="M562.7,105h-9.4c-1.9,0-3.2-0.3-3.9-0.9c-0.7-0.6-1.1-1.9-1.1-3.8V84c0-3.3,1.6-4.9,4.9-4.9h9.4
	c1.7,0,2.6-0.9,2.6-2.6V54.1c0-3.3,1.7-4.9,5.2-4.9h19.8c3.3,0,4.9,1.7,4.9,4.9v22.4c0,1.7,0.9,2.6,2.8,2.6h18.4
	c3.3,0,4.9,1.7,4.9,4.9v16.3c0,1.7-0.4,2.9-1.1,3.7c-0.7,0.7-2,1.1-3.9,1.1h-18.4c-1.9,0-2.8,0.9-2.8,2.6v52.1
	c0,4.9,1.1,8.4,3.3,10.5c2.2,2.1,5.8,3.2,10.8,3.2h9.4c3.3,0,4.9,1.7,4.9,4.9v16.3c0,1.7-0.4,2.9-1.1,3.7c-0.7,0.7-2,1.1-3.9,1.1
	h-14.4c-12.4,0-22-3.3-28.9-9.9c-6.8-6.6-10.3-16-10.3-28.3v-53.5C565.3,105.9,564.4,105,562.7,105z"/>
<path class="st0" d="M705.5,199.3h-21c-12.4,0-22-3.3-28.8-9.9c-6.8-6.6-10.1-16.1-10.1-28.5v-43.4c0-12.4,3.4-21.9,10.1-28.5
	c6.8-6.6,16.3-9.9,28.8-9.9h21c12.3,0,21.8,3.3,28.6,10c6.8,6.7,10.3,16.1,10.3,28.4v43.4c0,12.3-3.4,21.7-10.3,28.4
	C727.4,196,717.8,199.3,705.5,199.3z M689.1,173.6h12c5,0,8.6-1,10.7-3.1c2.1-2,3.2-5.6,3.2-10.6v-41.5c0-5-1.1-8.6-3.2-10.6
	c-2.1-2-5.7-3.1-10.7-3.1h-12c-5,0-8.6,1-10.6,3.1c-2,2-3.1,5.6-3.1,10.6v41.5c0,5,1,8.6,3.1,10.6
	C680.5,172.6,684,173.6,689.1,173.6z"/>
<path class="st0" d="M767.5,79.1h20.7c3.1,0,5,1.7,5.7,4.9l20.3,88.6h1.6L835.6,84c0.6-3.3,2.6-4.9,5.9-4.9h20.7
	c3.3,0,4.5,1.7,3.5,4.9l-29.7,110.1c-0.6,3.5-2.8,5.2-6.4,5.2h-29.9c-3.3,0-5.4-1.7-6.4-5.2L764,84
	C763.1,80.8,764.2,79.1,767.5,79.1z"/>
<path class="st0" d="M945.2,199.3h-21c-12.4,0-22-3.3-28.8-9.9c-6.8-6.6-10.1-16.1-10.1-28.5v-43.4c0-12.4,3.4-21.9,10.1-28.5
	c6.8-6.6,16.3-9.9,28.8-9.9h21c12.3,0,21.8,3.3,28.6,10c6.8,6.7,10.3,16.1,10.3,28.4v43.4c0,12.3-3.4,21.7-10.3,28.4
	C967,196,957.5,199.3,945.2,199.3z M928.7,173.6h12c5,0,8.6-1,10.7-3.1c2.1-2,3.2-5.6,3.2-10.6v-41.5c0-5-1.1-8.6-3.2-10.6
	c-2.1-2-5.7-3.1-10.7-3.1h-12c-5,0-8.6,1-10.6,3.1c-2,2-3.1,5.6-3.1,10.6v41.5c0,5,1,8.6,3.1,10.6
	C920.2,172.6,923.7,173.6,928.7,173.6z"/>
</svg>
